<svg width="194" height="122" viewBox="0 0 194 122" fill="none" xmlns="http://www.w3.org/2000/svg">
<rect width="194" height="122" fill="#F5F5F5"/>
<line y1="56" x2="194" y2="56" stroke="black" stroke-width="4"/>
<line y1="92" x2="194" y2="92" stroke="black" stroke-width="4"/>
<path d="M28.9659 63.7273H33.1818V78.9318C33.1818 80.5985 32.7879 82.0644 32 83.3295C31.2197 84.5947 30.1212 85.5833 28.7045 86.2955C27.2879 87 25.6326 87.3523 23.7386 87.3523C21.8371 87.3523 20.178 87 18.7614 86.2955C17.3447 85.5833 16.2462 84.5947 15.4659 83.3295C14.6856 82.0644 14.2955 80.5985 14.2955 78.9318V63.7273H18.5114V78.5795C18.5114 79.5492 18.7235 80.4129 19.1477 81.1705C19.5795 81.928 20.1856 82.5227 20.9659 82.9545C21.7462 83.3788 22.6705 83.5909 23.7386 83.5909C24.8068 83.5909 25.7311 83.3788 26.5114 82.9545C27.2992 82.5227 27.9053 81.928 28.3295 81.1705C28.7538 80.4129 28.9659 79.5492 28.9659 78.5795V63.7273ZM37.7642 87V63.7273H41.9801V74.4205H42.2642L51.3438 63.7273H56.4915L47.4915 74.1705L56.571 87H51.5028L44.5597 77.0227L41.9801 80.0682V87H37.7642ZM59.4205 87V63.7273H68.1477C69.9356 63.7273 71.4356 64.0379 72.6477 64.6591C73.8674 65.2803 74.7879 66.1515 75.4091 67.2727C76.0379 68.3864 76.3523 69.6856 76.3523 71.1705C76.3523 72.6629 76.0341 73.9583 75.3977 75.0568C74.7689 76.1477 73.8409 76.9924 72.6136 77.5909C71.3864 78.1818 69.8788 78.4773 68.0909 78.4773H61.875V74.9773H67.5227C68.5682 74.9773 69.4242 74.8333 70.0909 74.5455C70.7576 74.25 71.25 73.822 71.5682 73.2614C71.8939 72.6932 72.0568 71.9962 72.0568 71.1705C72.0568 70.3447 71.8939 69.6402 71.5682 69.0568C71.2424 68.4659 70.7462 68.0189 70.0795 67.7159C69.4129 67.4053 68.553 67.25 67.5 67.25H63.6364V87H59.4205ZM71.4432 76.4545L77.2045 87H72.5L66.8409 76.4545H71.4432ZM94.9034 63.7273H99.1193V78.9318C99.1193 80.5985 98.7254 82.0644 97.9375 83.3295C97.1572 84.5947 96.0587 85.5833 94.642 86.2955C93.2254 87 91.5701 87.3523 89.6761 87.3523C87.7746 87.3523 86.1155 87 84.6989 86.2955C83.2822 85.5833 82.1837 84.5947 81.4034 83.3295C80.6231 82.0644 80.233 80.5985 80.233 78.9318V63.7273H84.4489V78.5795C84.4489 79.5492 84.661 80.4129 85.0852 81.1705C85.517 81.928 86.1231 82.5227 86.9034 82.9545C87.6837 83.3788 88.608 83.5909 89.6761 83.5909C90.7443 83.5909 91.6686 83.3788 92.4489 82.9545C93.2367 82.5227 93.8428 81.928 94.267 81.1705C94.6913 80.4129 94.9034 79.5492 94.9034 78.5795V63.7273ZM122.827 63.7273V87H119.077L108.111 71.1477H107.918V87H103.702V63.7273H107.474L118.429 79.5909H118.634V63.7273H122.827ZM131.636 63.7273V87H127.42V63.7273H131.636ZM156.997 75.3636C156.997 77.8712 156.527 80.0189 155.588 81.8068C154.656 83.5871 153.384 84.9508 151.77 85.8977C150.164 86.8447 148.342 87.3182 146.304 87.3182C144.266 87.3182 142.44 86.8447 140.827 85.8977C139.221 84.9432 137.948 83.5758 137.009 81.7955C136.077 80.0076 135.611 77.8636 135.611 75.3636C135.611 72.8561 136.077 70.7121 137.009 68.9318C137.948 67.1439 139.221 65.7765 140.827 64.8295C142.44 63.8826 144.266 63.4091 146.304 63.4091C148.342 63.4091 150.164 63.8826 151.77 64.8295C153.384 65.7765 154.656 67.1439 155.588 68.9318C156.527 70.7121 156.997 72.8561 156.997 75.3636ZM152.759 75.3636C152.759 73.5985 152.482 72.1098 151.929 70.8977C151.384 69.678 150.626 68.7576 149.656 68.1364C148.687 67.5076 147.569 67.1932 146.304 67.1932C145.039 67.1932 143.921 67.5076 142.952 68.1364C141.982 68.7576 141.221 69.678 140.668 70.8977C140.122 72.1098 139.849 73.5985 139.849 75.3636C139.849 77.1288 140.122 78.6212 140.668 79.8409C141.221 81.053 141.982 81.9735 142.952 82.6023C143.921 83.2235 145.039 83.5341 146.304 83.5341C147.569 83.5341 148.687 83.2235 149.656 82.6023C150.626 81.9735 151.384 81.053 151.929 79.8409C152.482 78.6212 152.759 77.1288 152.759 75.3636ZM180.108 63.7273V87H176.358L165.392 71.1477H165.199V87H160.983V63.7273H164.756L175.71 79.5909H175.915V63.7273H180.108Z" fill="#333333"/>
<line x1="40.8526" y1="56.5582" x2="100.304" y2="3.02771" stroke="black" stroke-width="6"/>
<line x1="97.2362" y1="3.51428" x2="155.202" y2="55.7065" stroke="black" stroke-width="6"/>
<path d="M98.5 21L129.244 47.25H67.7561L98.5 21Z" fill="#A30404"/>
<path d="M10.6165 100.141V98.8182H18.4964V100.141H15.3196V109H13.7884V100.141H10.6165ZM28.6447 103.909C28.6447 104.996 28.4458 105.931 28.0481 106.713C27.6504 107.492 27.1052 108.092 26.4125 108.513C25.7231 108.93 24.9392 109.139 24.0609 109.139C23.1793 109.139 22.3921 108.93 21.6994 108.513C21.01 108.092 20.4664 107.49 20.0687 106.708C19.671 105.926 19.4721 104.993 19.4721 103.909C19.4721 102.822 19.671 101.889 20.0687 101.11C20.4664 100.328 21.01 99.728 21.6994 99.3104C22.3921 98.8894 23.1793 98.679 24.0609 98.679C24.9392 98.679 25.7231 98.8894 26.4125 99.3104C27.1052 99.728 27.6504 100.328 28.0481 101.11C28.4458 101.889 28.6447 102.822 28.6447 103.909ZM27.1234 103.909C27.1234 103.08 26.9892 102.383 26.7207 101.816C26.4556 101.246 26.091 100.815 25.627 100.523C25.1663 100.228 24.6442 100.081 24.0609 100.081C23.4743 100.081 22.9506 100.228 22.4899 100.523C22.0292 100.815 21.6646 101.246 21.3961 101.816C21.131 102.383 20.9984 103.08 20.9984 103.909C20.9984 104.738 21.131 105.437 21.3961 106.007C21.6646 106.574 22.0292 107.005 22.4899 107.3C22.9506 107.591 23.4743 107.737 24.0609 107.737C24.6442 107.737 25.1663 107.591 25.627 107.3C26.091 107.005 26.4556 106.574 26.7207 106.007C26.9892 105.437 27.1234 104.738 27.1234 103.909ZM30.56 109V98.8182H34.2887C35.0112 98.8182 35.6095 98.9375 36.0835 99.1761C36.5574 99.4115 36.9121 99.7313 37.1474 100.136C37.3827 100.537 37.5004 100.989 37.5004 101.493C37.5004 101.917 37.4225 102.275 37.2667 102.567C37.1109 102.855 36.9021 103.087 36.6403 103.263C36.3817 103.435 36.0967 103.561 35.7852 103.641V103.74C36.1232 103.757 36.453 103.866 36.7745 104.068C37.0993 104.267 37.3678 104.55 37.5799 104.918C37.792 105.286 37.8981 105.734 37.8981 106.261C37.8981 106.781 37.7754 107.248 37.5302 107.663C37.2882 108.074 36.9137 108.4 36.4066 108.642C35.8995 108.881 35.2515 109 34.4627 109H30.56ZM32.0962 107.683H34.3136C35.0494 107.683 35.5763 107.54 35.8945 107.255C36.2127 106.97 36.3718 106.614 36.3718 106.186C36.3718 105.865 36.2906 105.57 36.1282 105.301C35.9658 105.033 35.7338 104.819 35.4322 104.66C35.1339 104.501 34.7792 104.421 34.3683 104.421H32.0962V107.683ZM32.0962 103.223H34.1545C34.4992 103.223 34.8091 103.157 35.0842 103.024C35.3626 102.892 35.583 102.706 35.7454 102.467C35.9111 102.225 35.994 101.94 35.994 101.612C35.994 101.191 35.8465 100.838 35.5515 100.553C35.2565 100.268 34.8041 100.126 34.1942 100.126H32.0962V103.223ZM51.3848 98.8182V109H49.8535V100.131H45.0609V109H43.5297V98.8182H51.3848ZM53.7338 98.8182H55.5982L58.8397 106.733H58.959L62.2005 98.8182H64.0648V109H62.6032V101.632H62.5087L59.5059 108.985H58.2928L55.29 101.627H55.1955V109H53.7338V98.8182ZM65.7962 100.141V98.8182H73.6761V100.141H70.4993V109H68.968V100.141H65.7962ZM78.823 109.139C78.1402 109.139 77.5304 109.022 76.9934 108.786C76.4598 108.551 76.0372 108.224 75.7257 107.807C75.4174 107.386 75.2517 106.899 75.2285 106.345H76.7896C76.8095 106.647 76.9106 106.909 77.0929 107.131C77.2785 107.349 77.5204 107.518 77.8187 107.638C78.117 107.757 78.4484 107.817 78.813 107.817C79.2141 107.817 79.5687 107.747 79.877 107.608C80.1885 107.469 80.4321 107.275 80.6078 107.026C80.7834 106.774 80.8713 106.484 80.8713 106.156C80.8713 105.815 80.7834 105.515 80.6078 105.256C80.4354 104.995 80.1819 104.789 79.8471 104.64C79.5157 104.491 79.1146 104.416 78.644 104.416H77.7839V103.163H78.644C79.0218 103.163 79.3533 103.095 79.6383 102.96C79.9267 102.824 80.152 102.635 80.3145 102.393C80.4769 102.147 80.5581 101.861 80.5581 101.533C80.5581 101.218 80.4868 100.944 80.3443 100.712C80.2051 100.477 80.0062 100.293 79.7477 100.161C79.4925 100.028 79.1909 99.9616 78.8429 99.9616C78.5114 99.9616 78.2015 100.023 77.9132 100.146C77.6281 100.265 77.3961 100.437 77.2172 100.663C77.0382 100.885 76.9421 101.152 76.9288 101.463H75.4423C75.4589 100.913 75.6213 100.429 75.9295 100.011C76.2411 99.5937 76.652 99.2673 77.1625 99.032C77.6729 98.7966 78.2396 98.679 78.8627 98.679C79.5157 98.679 80.0791 98.8066 80.5531 99.0618C81.0304 99.3137 81.3983 99.6501 81.6568 100.071C81.9186 100.492 82.0479 100.953 82.0446 101.453C82.0479 102.023 81.8888 102.507 81.5673 102.905C81.2491 103.303 80.8249 103.569 80.2946 103.705V103.785C80.9707 103.888 81.4944 104.156 81.8656 104.59C82.2401 105.024 82.4257 105.563 82.4224 106.206C82.4257 106.766 82.2699 107.268 81.9551 107.712C81.6435 108.156 81.2176 108.506 80.6774 108.761C80.1371 109.013 79.519 109.139 78.823 109.139ZM87.7333 102V101.045C87.7333 100.764 87.7863 100.467 87.8924 100.156C87.9985 99.844 88.146 99.5457 88.3349 99.2607C88.5238 98.9756 88.7459 98.732 89.0011 98.5298L89.7369 99.0568C89.5347 99.3518 89.3623 99.66 89.2198 99.9815C89.0773 100.303 89.006 100.653 89.006 101.031V102H87.7333ZM90.2688 102V101.045C90.2688 100.764 90.3219 100.467 90.4279 100.156C90.534 99.844 90.6815 99.5457 90.8704 99.2607C91.0593 98.9756 91.2814 98.732 91.5366 98.5298L92.2724 99.0568C92.0702 99.3518 91.8978 99.66 91.7553 99.9815C91.6128 100.303 91.5415 100.653 91.5415 101.031V102H90.2688ZM94.7383 98.8182L97.1744 102.8H97.2539L99.69 98.8182H101.47L98.2979 103.909L101.49 109H99.6999L97.2539 105.072H97.1744L94.7283 109H92.9386L96.185 103.909L92.9585 98.8182H94.7383ZM102.874 109V101.364H104.361V109H102.874ZM103.625 100.185C103.366 100.185 103.144 100.099 102.959 99.9268C102.777 99.7512 102.685 99.5424 102.685 99.3004C102.685 99.0552 102.777 98.8464 102.959 98.674C103.144 98.4983 103.366 98.4105 103.625 98.4105C103.884 98.4105 104.104 98.4983 104.286 98.674C104.472 98.8464 104.565 99.0552 104.565 99.3004C104.565 99.5424 104.472 99.7512 104.286 99.9268C104.104 100.099 103.884 100.185 103.625 100.185ZM110.646 107.161L113.112 101.364H114.395L111.198 109H110.094L106.962 101.364H108.23L110.646 107.161ZM107.817 101.364V109H106.361V101.364H107.817ZM113.515 109V101.364H114.961V109H113.515ZM116.943 109V101.364H123.172V109H121.715V102.646H118.389V109H116.943ZM125.159 111.864V101.364H126.611V102.602H126.735C126.822 102.442 126.946 102.259 127.108 102.05C127.271 101.841 127.496 101.659 127.784 101.503C128.073 101.344 128.454 101.264 128.928 101.264C129.544 101.264 130.095 101.42 130.578 101.732C131.062 102.043 131.442 102.492 131.717 103.079C131.995 103.665 132.135 104.371 132.135 105.197C132.135 106.022 131.997 106.73 131.722 107.32C131.447 107.906 131.069 108.359 130.588 108.677C130.108 108.992 129.559 109.149 128.943 109.149C128.479 109.149 128.099 109.071 127.804 108.915C127.513 108.76 127.284 108.577 127.118 108.369C126.953 108.16 126.825 107.974 126.735 107.812H126.646V111.864H125.159ZM126.616 105.182C126.616 105.719 126.694 106.189 126.85 106.594C127.006 106.998 127.231 107.315 127.526 107.543C127.821 107.769 128.182 107.881 128.61 107.881C129.054 107.881 129.425 107.764 129.723 107.528C130.022 107.29 130.247 106.967 130.4 106.559C130.555 106.151 130.633 105.692 130.633 105.182C130.633 104.678 130.557 104.226 130.404 103.825C130.255 103.424 130.03 103.107 129.728 102.875C129.43 102.643 129.057 102.527 128.61 102.527C128.179 102.527 127.814 102.638 127.516 102.86C127.221 103.082 126.997 103.392 126.845 103.79C126.692 104.187 126.616 104.652 126.616 105.182ZM137.017 109.154C136.301 109.154 135.676 108.99 135.142 108.662C134.609 108.334 134.194 107.875 133.9 107.285C133.605 106.695 133.457 106.005 133.457 105.217C133.457 104.424 133.605 103.732 133.9 103.138C134.194 102.545 134.609 102.085 135.142 101.756C135.676 101.428 136.301 101.264 137.017 101.264C137.733 101.264 138.357 101.428 138.891 101.756C139.425 102.085 139.839 102.545 140.134 103.138C140.429 103.732 140.576 104.424 140.576 105.217C140.576 106.005 140.429 106.695 140.134 107.285C139.839 107.875 139.425 108.334 138.891 108.662C138.357 108.99 137.733 109.154 137.017 109.154ZM137.022 107.906C137.486 107.906 137.87 107.784 138.175 107.538C138.48 107.293 138.705 106.967 138.851 106.559C139 106.151 139.075 105.702 139.075 105.212C139.075 104.724 139 104.277 138.851 103.869C138.705 103.458 138.48 103.129 138.175 102.88C137.87 102.631 137.486 102.507 137.022 102.507C136.554 102.507 136.167 102.631 135.858 102.88C135.553 103.129 135.326 103.458 135.177 103.869C135.031 104.277 134.958 104.724 134.958 105.212C134.958 105.702 135.031 106.151 135.177 106.559C135.326 106.967 135.553 107.293 135.858 107.538C136.167 107.784 136.554 107.906 137.022 107.906ZM146.521 107.161L148.987 101.364H150.27L147.073 109H145.969L142.837 101.364H144.105L146.521 107.161ZM143.692 101.364V109H142.236V101.364H143.692ZM149.39 109V101.364H150.836V109H149.39ZM156.034 109.154C155.295 109.154 154.659 108.987 154.125 108.652C153.595 108.314 153.187 107.848 152.902 107.255C152.617 106.662 152.475 105.982 152.475 105.217C152.475 104.441 152.62 103.757 152.912 103.163C153.204 102.567 153.615 102.101 154.145 101.766C154.675 101.432 155.3 101.264 156.019 101.264C156.599 101.264 157.116 101.372 157.57 101.587C158.025 101.799 158.391 102.098 158.669 102.482C158.951 102.867 159.118 103.316 159.171 103.83H157.725C157.645 103.472 157.463 103.163 157.178 102.905C156.896 102.646 156.518 102.517 156.044 102.517C155.63 102.517 155.267 102.626 154.955 102.845C154.647 103.061 154.407 103.369 154.235 103.77C154.062 104.168 153.976 104.638 153.976 105.182C153.976 105.739 154.061 106.219 154.23 106.624C154.399 107.028 154.637 107.341 154.945 107.563C155.257 107.785 155.623 107.896 156.044 107.896C156.326 107.896 156.581 107.845 156.81 107.742C157.042 107.636 157.236 107.485 157.392 107.29C157.551 107.094 157.662 106.859 157.725 106.584H159.171C159.118 107.078 158.958 107.518 158.689 107.906C158.421 108.294 158.061 108.599 157.61 108.821C157.163 109.043 156.637 109.154 156.034 109.154ZM163.978 109.154C163.262 109.154 162.637 108.99 162.103 108.662C161.57 108.334 161.155 107.875 160.86 107.285C160.565 106.695 160.418 106.005 160.418 105.217C160.418 104.424 160.565 103.732 160.86 103.138C161.155 102.545 161.57 102.085 162.103 101.756C162.637 101.428 163.262 101.264 163.978 101.264C164.694 101.264 165.318 101.428 165.852 101.756C166.386 102.085 166.8 102.545 167.095 103.138C167.39 103.732 167.537 104.424 167.537 105.217C167.537 106.005 167.39 106.695 167.095 107.285C166.8 107.875 166.386 108.334 165.852 108.662C165.318 108.99 164.694 109.154 163.978 109.154ZM163.983 107.906C164.447 107.906 164.831 107.784 165.136 107.538C165.441 107.293 165.666 106.967 165.812 106.559C165.961 106.151 166.036 105.702 166.036 105.212C166.036 104.724 165.961 104.277 165.812 103.869C165.666 103.458 165.441 103.129 165.136 102.88C164.831 102.631 164.447 102.507 163.983 102.507C163.515 102.507 163.127 102.631 162.819 102.88C162.514 103.129 162.287 103.458 162.138 103.869C161.992 104.277 161.919 104.724 161.919 105.212C161.919 105.702 161.992 106.151 162.138 106.559C162.287 106.967 162.514 107.293 162.819 107.538C163.127 107.784 163.515 107.906 163.983 107.906ZM173.04 104.595V105.888H168.968V104.595H173.04ZM170.176 101.364V109H168.689V101.364H170.176ZM175.366 109.154C174.657 109.154 174.037 108.988 173.507 108.657C172.977 108.326 172.566 107.865 172.274 107.275C171.982 106.682 171.836 105.994 171.836 105.212C171.836 104.423 171.982 103.733 172.274 103.143C172.566 102.55 172.977 102.089 173.507 101.761C174.037 101.43 174.657 101.264 175.366 101.264C176.079 101.264 176.699 101.43 177.226 101.761C177.756 102.089 178.167 102.55 178.459 103.143C178.754 103.733 178.901 104.423 178.901 105.212C178.901 105.994 178.754 106.682 178.459 107.275C178.167 107.865 177.756 108.326 177.226 108.657C176.699 108.988 176.079 109.154 175.366 109.154ZM175.366 107.881C175.847 107.881 176.24 107.76 176.545 107.518C176.853 107.273 177.08 106.948 177.226 106.544C177.372 106.14 177.444 105.696 177.444 105.212C177.444 104.724 177.372 104.279 177.226 103.874C177.08 103.467 176.853 103.14 176.545 102.895C176.24 102.65 175.847 102.527 175.366 102.527C174.889 102.527 174.496 102.65 174.188 102.895C173.88 103.14 173.653 103.467 173.507 103.874C173.361 104.279 173.288 104.724 173.288 105.212C173.288 105.696 173.361 106.14 173.507 106.544C173.653 106.948 173.88 107.273 174.188 107.518C174.496 107.76 174.889 107.881 175.366 107.881ZM180.201 106.982H181.722C181.742 107.293 181.883 107.533 182.145 107.702C182.41 107.871 182.753 107.956 183.174 107.956C183.602 107.956 183.966 107.865 184.268 107.683C184.57 107.497 184.72 107.21 184.72 106.822C184.72 106.59 184.662 106.388 184.546 106.216C184.434 106.04 184.273 105.904 184.064 105.808C183.859 105.712 183.615 105.664 183.333 105.664H182.09V104.496H183.333C183.754 104.496 184.069 104.4 184.278 104.207C184.487 104.015 184.591 103.775 184.591 103.487C184.591 103.175 184.478 102.925 184.253 102.736C184.031 102.544 183.721 102.447 183.323 102.447C182.919 102.447 182.583 102.539 182.314 102.721C182.046 102.9 181.905 103.132 181.892 103.417H180.39C180.4 102.989 180.529 102.615 180.778 102.293C181.03 101.969 181.368 101.717 181.792 101.538C182.22 101.355 182.705 101.264 183.249 101.264C183.816 101.264 184.306 101.355 184.72 101.538C185.135 101.72 185.454 101.972 185.68 102.293C185.909 102.615 186.023 102.984 186.023 103.402C186.023 103.823 185.897 104.168 185.645 104.436C185.396 104.701 185.072 104.892 184.671 105.008V105.087C184.966 105.107 185.227 105.197 185.456 105.356C185.685 105.515 185.864 105.725 185.993 105.987C186.122 106.249 186.187 106.546 186.187 106.877C186.187 107.344 186.058 107.749 185.799 108.09C185.544 108.432 185.189 108.695 184.735 108.881C184.285 109.063 183.769 109.154 183.189 109.154C182.626 109.154 182.12 109.066 181.673 108.891C181.229 108.712 180.876 108.46 180.614 108.135C180.355 107.81 180.218 107.426 180.201 106.982ZM189 98.8182V99.7727C189 100.054 188.947 100.351 188.841 100.663C188.738 100.971 188.592 101.268 188.403 101.553C188.214 101.838 187.992 102.083 187.737 102.288L187.001 101.761C187.197 101.476 187.366 101.173 187.508 100.852C187.654 100.53 187.727 100.175 187.727 99.7876V98.8182H189ZM191.53 98.8182V99.7727C191.53 100.054 191.477 100.351 191.371 100.663C191.268 100.971 191.123 101.268 190.934 101.553C190.745 101.838 190.523 102.083 190.267 102.288L189.532 101.761C189.727 101.476 189.896 101.173 190.039 100.852C190.185 100.53 190.257 100.175 190.257 99.7876V98.8182H191.53Z" fill="black"/>
<line x1="37" y1="119" x2="157" y2="119" stroke="#A30404" stroke-width="6"/>
</svg>
